<svg width="20" height="16" viewBox="0 0 20 16" fill="none" xmlns="http://www.w3.org/2000/svg">
<g clip-path="url(#clip0_25372_231)">
<path d="M20 1.79875C19.2563 2.125 18.4637 2.34125 17.6375 2.44625C18.4875 1.93875 19.1363 1.14125 19.4412 0.18C18.6488 0.6525 17.7738 0.98625 16.8412 1.1725C16.0887 0.37125 15.0162 -0.125 13.8462 -0.125C11.5763 -0.125 9.74875 1.7175 9.74875 3.97625C9.74875 4.30125 9.77625 4.61375 9.84375 4.91125C6.435 4.745 3.41875 3.11125 1.3925 0.6225C1.03875 1.23625 0.83125 1.93875 0.83125 2.695C0.83125 4.115 1.5625 5.37375 2.6525 6.1025C1.99375 6.09 1.3475 5.89875 0.8 5.5975C0.8 5.61 0.8 5.62625 0.8 5.6425C0.8 7.635 2.22125 9.29 4.085 9.67125C3.75125 9.7625 3.3875 9.80625 3.01 9.80625C2.7475 9.80625 2.4825 9.79125 2.23375 9.73625C2.765 11.36 4.2725 12.5538 6.065 12.5925C4.67 13.6838 2.89875 14.3412 0.98125 14.3412C0.645 14.3412 0.3225 14.3263 0 14.285C1.81625 15.4563 3.96875 16.125 6.29 16.125C13.835 16.125 17.96 9.875 17.96 4.4575C17.96 4.27625 17.9538 4.10125 17.945 3.9275C18.7588 3.35 19.4425 2.62875 20 1.79875Z" fill="#AFB1B8"/>
</g>
<defs>
<clipPath id="clip0_25372_231">
<rect width="20" height="20" fill="white" transform="translate(0 -2)"/>
</clipPath>
</defs>
</svg>
