<svg width="45" height="50" viewBox="0 0 45 50" fill="none" xmlns="http://www.w3.org/2000/svg">
<path d="M6 0L13.3076 6.91796H33.6924V26.2158L41 33.1338V0H6Z" fill="#AFB1B8"/>
<path d="M0 6.62646V38.8137H34V26.0195L13.5231 6.63443L0 6.62646ZM27.5231 34.1055H5.38008V12.4579H6.9453V32.6397H27.5231V34.1055Z" fill="#AFB1B8"/>
<path d="M8.9707 43.0991L9.7959 44.7959L10.6211 43.0991H11.2998L10.1035 45.3452V46.6538H9.48584V45.3452L8.28955 43.0991H8.9707ZM12.7939 43.5728L11.7319 46.6538H11.0898L12.4277 43.0991H12.8379L12.7939 43.5728ZM13.6826 46.6538L12.6182 43.5728L12.5718 43.0991H12.9844L14.3271 46.6538H13.6826ZM13.6313 45.3354V45.8213H11.6978V45.3354H13.6313ZM16.5195 44.7202L17.1323 44.3076C17.2349 44.2393 17.3081 44.1725 17.3521 44.1074C17.396 44.0407 17.418 43.9577 17.418 43.8584C17.418 43.7738 17.3854 43.6956 17.3203 43.624C17.2552 43.5524 17.1632 43.5166 17.0444 43.5166C16.9614 43.5166 16.8914 43.5361 16.8345 43.5752C16.7775 43.6126 16.7344 43.6631 16.7051 43.7266C16.6774 43.7884 16.6636 43.8576 16.6636 43.9341C16.6636 44.0073 16.6823 44.083 16.7197 44.1611C16.7572 44.2376 16.8084 44.3182 16.8735 44.4028C16.9386 44.4858 17.0119 44.5754 17.0933 44.6714L18.7729 46.6538H18.0918L16.7197 45.04C16.6009 44.8968 16.4959 44.7658 16.4048 44.647C16.3136 44.5265 16.2428 44.4102 16.1924 44.2979C16.1419 44.1839 16.1167 44.0667 16.1167 43.9463C16.1167 43.7607 16.1549 43.6012 16.2314 43.4678C16.3079 43.3343 16.4162 43.2318 16.5562 43.1602C16.6961 43.0869 16.8597 43.0503 17.0469 43.0503C17.2275 43.0503 17.383 43.0869 17.5132 43.1602C17.645 43.2318 17.7459 43.327 17.8159 43.4458C17.8875 43.5646 17.9233 43.6948 17.9233 43.8364C17.9233 43.9487 17.903 44.0513 17.8623 44.144C17.8216 44.2368 17.7655 44.3215 17.6938 44.3979C17.6222 44.4744 17.5392 44.5469 17.4448 44.6152L16.7002 45.1572C16.6139 45.2272 16.5496 45.2948 16.5073 45.3599C16.4666 45.4233 16.4398 45.4819 16.4268 45.5356C16.4137 45.5894 16.4072 45.6366 16.4072 45.6772C16.4072 45.7814 16.4292 45.8758 16.4731 45.9604C16.5187 46.0451 16.5846 46.1126 16.6709 46.1631C16.7588 46.2119 16.8654 46.2363 16.9907 46.2363C17.1258 46.2363 17.2568 46.2062 17.3838 46.146C17.5107 46.0841 17.6247 45.9971 17.7256 45.8848C17.8265 45.7725 17.9062 45.6382 17.9648 45.4819C18.0251 45.3257 18.0552 45.1523 18.0552 44.9619H18.563C18.563 45.1344 18.5459 45.298 18.5117 45.4526C18.4792 45.6073 18.4263 45.7505 18.353 45.8823C18.2814 46.0142 18.187 46.1322 18.0698 46.2363C18.0584 46.2477 18.0454 46.2624 18.0308 46.2803C18.0177 46.2965 18.0047 46.3104 17.9917 46.3218C17.8517 46.4504 17.6947 46.5464 17.5205 46.6099C17.348 46.6717 17.1641 46.7026 16.9688 46.7026C16.7327 46.7026 16.5285 46.6595 16.356 46.5732C16.1834 46.487 16.05 46.3682 15.9556 46.2168C15.8628 46.0654 15.8164 45.8921 15.8164 45.6968C15.8164 45.5519 15.8465 45.425 15.9067 45.3159C15.967 45.2052 16.0492 45.1027 16.1533 45.0083C16.2591 44.9123 16.3812 44.8162 16.5195 44.7202ZM22.5229 45.4966H23.1333C23.1138 45.7293 23.0487 45.9368 22.938 46.1191C22.8273 46.2998 22.6719 46.4422 22.4717 46.5464C22.2715 46.6506 22.0282 46.7026 21.7417 46.7026C21.522 46.7026 21.3242 46.6636 21.1484 46.5854C20.9727 46.5057 20.8221 46.3934 20.6968 46.2485C20.5715 46.1021 20.4754 45.9255 20.4087 45.7188C20.3436 45.512 20.311 45.2809 20.311 45.0254V44.73C20.311 44.4744 20.3444 44.2433 20.4111 44.0366C20.4795 43.8299 20.5771 43.6533 20.7041 43.5068C20.8311 43.3587 20.9832 43.2456 21.1606 43.1675C21.3397 43.0894 21.5407 43.0503 21.7637 43.0503C22.0469 43.0503 22.2861 43.1024 22.4814 43.2065C22.6768 43.3107 22.8281 43.4548 22.9355 43.6387C23.0446 43.8226 23.1113 44.0334 23.1357 44.271H22.5254C22.5091 44.118 22.4733 43.987 22.418 43.8779C22.3643 43.7689 22.2845 43.6859 22.1787 43.6289C22.0729 43.5703 21.9346 43.541 21.7637 43.541C21.6237 43.541 21.5016 43.5671 21.3975 43.6191C21.2933 43.6712 21.2062 43.7477 21.1362 43.8486C21.0662 43.9495 21.0133 44.0741 20.9775 44.2222C20.9434 44.3687 20.9263 44.5363 20.9263 44.7251V45.0254C20.9263 45.2044 20.9417 45.3672 20.9727 45.5137C21.0052 45.6585 21.054 45.783 21.1191 45.8872C21.1859 45.9914 21.2705 46.0719 21.373 46.1289C21.4756 46.1859 21.5985 46.2144 21.7417 46.2144C21.9159 46.2144 22.0566 46.1867 22.1641 46.1313C22.2731 46.076 22.3553 45.9954 22.4106 45.8896C22.4676 45.7822 22.505 45.6512 22.5229 45.4966ZM26.5244 44.7788V44.9741C26.5244 45.2427 26.4894 45.4836 26.4194 45.6968C26.3494 45.91 26.2493 46.0915 26.1191 46.2412C25.9906 46.391 25.8359 46.5057 25.6553 46.5854C25.4746 46.6636 25.2744 46.7026 25.0547 46.7026C24.8366 46.7026 24.6372 46.6636 24.4565 46.5854C24.2775 46.5057 24.1221 46.391 23.9902 46.2412C23.8584 46.0915 23.7559 45.91 23.6826 45.6968C23.611 45.4836 23.5752 45.2427 23.5752 44.9741V44.7788C23.5752 44.5103 23.611 44.2702 23.6826 44.0586C23.7542 43.8454 23.8551 43.6639 23.9854 43.5142C24.1172 43.3628 24.2726 43.248 24.4517 43.1699C24.6323 43.0902 24.8317 43.0503 25.0498 43.0503C25.2695 43.0503 25.4697 43.0902 25.6504 43.1699C25.8311 43.248 25.9865 43.3628 26.1167 43.5142C26.2469 43.6639 26.347 43.8454 26.417 44.0586C26.4886 44.2702 26.5244 44.5103 26.5244 44.7788ZM25.9116 44.9741V44.7739C25.9116 44.5754 25.8921 44.4004 25.853 44.249C25.8156 44.096 25.7594 43.9683 25.6846 43.8657C25.6113 43.7616 25.521 43.6834 25.4136 43.6313C25.3062 43.5776 25.1849 43.5508 25.0498 43.5508C24.9147 43.5508 24.7943 43.5776 24.6885 43.6313C24.5827 43.6834 24.4924 43.7616 24.4175 43.8657C24.3442 43.9683 24.2881 44.096 24.249 44.249C24.21 44.4004 24.1904 44.5754 24.1904 44.7739V44.9741C24.1904 45.1727 24.21 45.3485 24.249 45.5015C24.2881 45.6545 24.3451 45.7839 24.4199 45.8896C24.4964 45.9938 24.5876 46.0728 24.6934 46.1265C24.7992 46.1785 24.9196 46.2046 25.0547 46.2046C25.1914 46.2046 25.3127 46.1785 25.4185 46.1265C25.5243 46.0728 25.6138 45.9938 25.687 45.8896C25.7603 45.7839 25.8156 45.6545 25.853 45.5015C25.8921 45.3485 25.9116 45.1727 25.9116 44.9741Z" fill="#AFB1B8"/>
</svg>
